<svg xmlns="http://www.w3.org/2000/svg" viewBox="0 0 1600 900" role="img" aria-label="Abstract cultivated landscape in shades of green">
  <defs>
    <linearGradient id="sky" x1="0" y1="0" x2="0.9" y2="1"><stop stop-color="#142b20"/><stop offset=".52" stop-color="#28563a"/><stop offset="1" stop-color="#a1b28d"/></linearGradient>
    <linearGradient id="hill" x1="0" y1="0" x2="1" y2="1"><stop stop-color="#4f7b4d"/><stop offset="1" stop-color="#163b29"/></linearGradient>
    <linearGradient id="field" x1="0" y1="0" x2="1" y2=".18"><stop stop-color="#769460"/><stop offset="1" stop-color="#284e36"/></linearGradient>
    <radialGradient id="sun" cx="70%" cy="18%" r="50%"><stop stop-color="#e2e6bb" stop-opacity=".55"/><stop offset="1" stop-color="#e2e6bb" stop-opacity="0"/></radialGradient>
    <filter id="soft"><feGaussianBlur stdDeviation="20"/></filter>
  </defs>
  <rect width="1600" height="900" fill="url(#sky)"/>
  <rect width="1600" height="900" fill="url(#sun)"/>
  <g opacity=".22" filter="url(#soft)"><circle cx="1250" cy="170" r="126" fill="#f0eab2"/><circle cx="1100" cy="250" r="76" fill="#dbd590"/></g>
  <path d="M0 465C220 385 360 388 585 462c188 62 356 25 532-64 221-112 365-99 483-30v532H0Z" fill="#315d3d"/>
  <path d="M0 525c227-122 478-125 672-23 169 88 288 58 472-52 156-94 314-106 456-45v495H0Z" fill="url(#hill)"/>
  <path d="M0 605c208-79 397-62 592 18 173 71 295 62 470-18 217-99 366-104 538-45v340H0Z" fill="url(#field)"/>
  <g fill="none" stroke="#bbca91" stroke-opacity=".45" stroke-width="7">
    <path d="M-60 744C240 635 460 656 680 764s473 88 982-137"/>
    <path d="M-30 810C242 700 464 725 672 827s483 87 993-137"/>
    <path d="M60 892c241-111 403-114 615-20s501 60 910-152"/>
  </g>
  <g fill="#173d2a" opacity=".92">
    <path d="M1120 574c7-62 33-104 78-126-14 42-12 84 8 126-30-17-59-16-86 0Z"/><path d="M1230 594c7-83 43-136 106-159-20 54-18 106 7 159-39-23-77-23-113 0Z"/><path d="M1369 586c5-52 28-89 68-111-12 37-10 74 8 111-25-14-50-14-76 0Z"/>
  </g>
  <g opacity=".6" fill="#c7d88f"><circle cx="1058" cy="601" r="5"/><circle cx="1101" cy="622" r="4"/><circle cx="1156" cy="637" r="6"/><circle cx="1202" cy="658" r="4"/><circle cx="1249" cy="676" r="6"/><circle cx="1302" cy="699" r="4"/></g>
  <path d="M985 900c65-160 137-244 236-295 69-35 157-50 262-45 51 2 89 12 117 27v313Z" fill="#183e2b" fill-opacity=".58"/>
</svg>
